<svg width="100" height="100" viewBox="0 0 100 100" fill="none" xmlns="http://www.w3.org/2000/svg">
<mask id="mask0_24_2771" style="mask-type:alpha" maskUnits="userSpaceOnUse" x="0" y="0" width="100" height="100">
<rect width="100" height="100" fill="#FFE2E2"/>
</mask>
<g mask="url(#mask0_24_2771)">
<rect width="100" height="100" fill="#FFE2E2"/>
<g style="mix-blend-mode:multiply">
<rect x="153" y="40" width="12" height="156.347" transform="rotate(45 153 40)" fill="#FFE2E2"/>
</g>
<g style="mix-blend-mode:multiply">
<rect x="133" y="20" width="12" height="156.347" transform="rotate(45 133 20)" fill="#FFE2E2"/>
</g>
<g style="mix-blend-mode:multiply">
<rect x="113" y="-2" width="12" height="156.347" transform="rotate(45 113 -2)" fill="#FFE2E2"/>
</g>
<g style="mix-blend-mode:multiply">
<rect x="93" y="-23" width="12" height="156.347" transform="rotate(45 93 -23)" fill="#FFE2E2"/>
</g>
<g style="mix-blend-mode:multiply">
<rect x="73" y="-40" width="12" height="156.347" transform="rotate(45 73 -40)" fill="#FFE2E2"/>
</g>
<g style="mix-blend-mode:multiply">
<rect x="53" y="-56" width="12" height="156.347" transform="rotate(45 53 -56)" fill="#FFE2E2"/>
</g>
<g filter="url(#filter0_d_24_2771)">
<path d="M45.3017 66H35.0675L24.2341 48.4011V66H14V31H24.2341L35.0675 48.8955V31H45.3017V66Z" fill="white"/>
<path d="M71.7765 48.0551C73.7435 48.5494 75.2648 49.5711 76.3404 51.1201C77.4468 52.6361 78 54.3992 78 56.4096C78 59.4746 77.0473 61.8475 75.1418 63.5282C73.2671 65.1761 70.5626 66 67.0283 66H49.9253V31H66.5673C69.8865 31 72.4988 31.7745 74.4042 33.3234C76.3097 34.8724 77.2624 37.1299 77.2624 40.096C77.2624 42.1394 76.7553 43.8696 75.7411 45.2867C74.7577 46.6709 73.4361 47.5937 71.7765 48.0551ZM60.1594 44.6441H64.124C65.046 44.6441 65.7221 44.4463 66.1524 44.0508C66.6134 43.6554 66.8439 43.0457 66.8439 42.2217C66.8439 41.3649 66.6134 40.7387 66.1524 40.3432C65.7221 39.9148 65.046 39.7006 64.124 39.7006H60.1594V44.6441ZM64.8155 57.2006C65.7375 57.2006 66.4136 57.0193 66.8439 56.6568C67.3049 56.2613 67.5354 55.6351 67.5354 54.7782C67.5354 53.0975 66.6288 52.2571 64.8155 52.2571H60.1594V57.2006H64.8155Z" fill="white"/>
<path d="M45.3017 66V66.5C45.5778 66.5 45.8017 66.2761 45.8017 66H45.3017ZM35.0675 66L34.6418 66.2621C34.7328 66.4099 34.8939 66.5 35.0675 66.5V66ZM24.2341 48.4011L24.6599 48.139C24.5427 47.9485 24.3131 47.8591 24.0979 47.92C23.8827 47.981 23.7341 48.1774 23.7341 48.4011H24.2341ZM24.2341 66V66.5C24.5103 66.5 24.7341 66.2761 24.7341 66H24.2341ZM14 66H13.5C13.5 66.2761 13.7239 66.5 14 66.5V66ZM14 31V30.5C13.7239 30.5 13.5 30.7239 13.5 31H14ZM24.2341 31L24.6619 30.7411C24.5713 30.5914 24.4091 30.5 24.2341 30.5V31ZM35.0675 48.8955L34.6398 49.1544C34.756 49.3464 34.9858 49.4374 35.202 49.3771C35.4181 49.3168 35.5675 49.1199 35.5675 48.8955H35.0675ZM35.0675 31V30.5C34.7914 30.5 34.5675 30.7239 34.5675 31H35.0675ZM45.3017 31H45.8017C45.8017 30.7239 45.5778 30.5 45.3017 30.5V31ZM71.7765 48.0551L71.6426 47.5734C71.424 47.6341 71.2738 47.8345 71.2766 48.0613C71.2794 48.2882 71.4346 48.4847 71.6547 48.54L71.7765 48.0551ZM76.3404 51.1201L75.9296 51.4053L75.9365 51.4148L76.3404 51.1201ZM75.1418 63.5282L75.4719 63.9038L75.4726 63.9032L75.1418 63.5282ZM49.9253 66H49.4253C49.4253 66.2761 49.6492 66.5 49.9253 66.5V66ZM49.9253 31V30.5C49.6492 30.5 49.4253 30.7239 49.4253 31H49.9253ZM75.7411 45.2867L75.3345 44.9957L75.3335 44.9971L75.7411 45.2867ZM60.1594 44.6441H59.6594C59.6594 44.9202 59.8833 45.1441 60.1594 45.1441V44.6441ZM66.1524 44.0508L65.8268 43.6714C65.8225 43.6751 65.8182 43.6789 65.814 43.6827L66.1524 44.0508ZM66.1524 40.3432L65.7996 40.6975C65.8083 40.7063 65.8174 40.7147 65.8268 40.7227L66.1524 40.3432ZM60.1594 39.7006V39.2006C59.8833 39.2006 59.6594 39.4244 59.6594 39.7006H60.1594ZM66.8439 56.6568L67.1661 57.0392L67.1694 57.0363L66.8439 56.6568ZM60.1594 52.2571V51.7571C59.8833 51.7571 59.6594 51.9809 59.6594 52.2571H60.1594ZM60.1594 57.2006H59.6594C59.6594 57.4767 59.8833 57.7006 60.1594 57.7006V57.2006ZM45.3017 65.5H35.0675V66.5H45.3017V65.5ZM35.4933 65.7379L24.6599 48.139L23.8083 48.6632L34.6418 66.2621L35.4933 65.7379ZM23.7341 48.4011V66H24.7341V48.4011H23.7341ZM24.2341 65.5H14V66.5H24.2341V65.5ZM14.5 66V31H13.5V66H14.5ZM14 31.5H24.2341V30.5H14V31.5ZM23.8064 31.2589L34.6398 49.1544L35.4953 48.6365L24.6619 30.7411L23.8064 31.2589ZM35.5675 48.8955V31H34.5675V48.8955H35.5675ZM35.0675 31.5H45.3017V30.5H35.0675V31.5ZM44.8017 31V66H45.8017V31H44.8017ZM71.6547 48.54C73.5139 49.0073 74.9285 49.9634 75.9297 51.4053L76.7511 50.8349C75.6011 49.1788 73.973 48.0916 71.8984 47.5702L71.6547 48.54ZM75.9365 51.4148C76.9759 52.839 77.5 54.4972 77.5 56.4096H78.5C78.5 54.3013 77.9177 52.4331 76.7443 50.8253L75.9365 51.4148ZM77.5 56.4096C77.5 59.3634 76.5869 61.5869 74.8111 63.1533L75.4726 63.9032C77.5077 62.1081 78.5 59.5858 78.5 56.4096H77.5ZM74.8117 63.1527C73.0599 64.6925 70.4912 65.5 67.0283 65.5V66.5C70.634 66.5 73.4743 65.6597 75.4719 63.9038L74.8117 63.1527ZM67.0283 65.5H49.9253V66.5H67.0283V65.5ZM50.4253 66V31H49.4253V66H50.4253ZM49.9253 31.5H66.5673V30.5H49.9253V31.5ZM66.5673 31.5C69.8119 31.5 72.2995 32.2568 74.0888 33.7114L74.7196 32.9355C72.6981 31.2921 69.961 30.5 66.5673 30.5V31.5ZM74.0888 33.7114C75.8531 35.1456 76.7624 37.2459 76.7624 40.096H77.7624C77.7624 37.014 76.7663 34.5992 74.7196 32.9355L74.0888 33.7114ZM76.7624 40.096C76.7624 42.0535 76.278 43.6774 75.3345 44.9957L76.1477 45.5777C77.2326 44.0618 77.7624 42.2252 77.7624 40.096H76.7624ZM75.3335 44.9971C74.4176 46.2863 73.1934 47.1422 71.6426 47.5734L71.9105 48.5368C73.6789 48.0452 75.0978 47.0555 76.1487 45.5763L75.3335 44.9971ZM60.1594 45.1441H64.124V44.1441H60.1594V45.1441ZM64.124 45.1441C65.1021 45.1441 65.9275 44.9367 66.4907 44.419L65.814 43.6827C65.5167 43.956 64.9899 44.1441 64.124 44.1441V45.1441ZM66.4779 44.4303C67.0854 43.9092 67.3439 43.1368 67.3439 42.2217H66.3439C66.3439 42.9545 66.1414 43.4015 65.8268 43.6714L66.4779 44.4303ZM67.3439 42.2217C67.3439 41.2812 67.0894 40.4883 66.4779 39.9637L65.8268 40.7227C66.1373 40.9891 66.3439 41.4486 66.3439 42.2217H67.3439ZM66.5052 39.9889C65.9424 39.4285 65.1109 39.2006 64.124 39.2006V40.2006C64.9811 40.2006 65.5019 40.4011 65.7996 40.6975L66.5052 39.9889ZM64.124 39.2006H60.1594V40.2006H64.124V39.2006ZM59.6594 39.7006V44.6441H60.6594V39.7006H59.6594ZM64.8155 57.7006C65.7854 57.7006 66.6036 57.513 67.166 57.0391L66.5217 56.2744C66.2236 56.5256 65.6896 56.7006 64.8155 56.7006V57.7006ZM67.1694 57.0363C67.7809 56.5117 68.0354 55.7188 68.0354 54.7782H67.0354C67.0354 55.5514 66.8288 56.0109 66.5183 56.2773L67.1694 57.0363ZM68.0354 54.7782C68.0354 53.8506 67.7834 53.0658 67.1953 52.5207C66.6144 51.9821 65.7902 51.7571 64.8155 51.7571V52.7571C65.6541 52.7571 66.1898 52.9522 66.5155 53.254C66.834 53.5493 67.0354 54.0251 67.0354 54.7782H68.0354ZM64.8155 51.7571H60.1594V52.7571H64.8155V51.7571ZM59.6594 52.2571V57.2006H60.6594V52.2571H59.6594ZM60.1594 57.7006H64.8155V56.7006H60.1594V57.7006Z" fill="black"/>
</g>
<g filter="url(#filter1_d_24_2771)">
<path d="M91 55V65H81V55H91Z" fill="white"/>
<path d="M91 55V65H81V55H91Z" stroke="black" stroke-linejoin="round"/>
</g>
</g>
<defs>
<filter id="filter0_d_24_2771" x="12" y="30.5" width="66.5" height="37" filterUnits="userSpaceOnUse" color-interpolation-filters="sRGB">
<feFlood flood-opacity="0" result="BackgroundImageFix"/>
<feColorMatrix in="SourceAlpha" type="matrix" values="0 0 0 0 0 0 0 0 0 0 0 0 0 0 0 0 0 0 127 0" result="hardAlpha"/>
<feOffset dx="-1.5" dy="1"/>
<feComposite in2="hardAlpha" operator="out"/>
<feColorMatrix type="matrix" values="0 0 0 0 0 0 0 0 0 0 0 0 0 0 0 0 0 0 1 0"/>
<feBlend mode="darken" in2="BackgroundImageFix" result="effect1_dropShadow_24_2771"/>
<feBlend mode="normal" in="SourceGraphic" in2="effect1_dropShadow_24_2771" result="shape"/>
</filter>
<filter id="filter1_d_24_2771" x="79" y="54.5" width="12.5" height="12" filterUnits="userSpaceOnUse" color-interpolation-filters="sRGB">
<feFlood flood-opacity="0" result="BackgroundImageFix"/>
<feColorMatrix in="SourceAlpha" type="matrix" values="0 0 0 0 0 0 0 0 0 0 0 0 0 0 0 0 0 0 127 0" result="hardAlpha"/>
<feOffset dx="-1.5" dy="1"/>
<feComposite in2="hardAlpha" operator="out"/>
<feColorMatrix type="matrix" values="0 0 0 0 0 0 0 0 0 0 0 0 0 0 0 0 0 0 1 0"/>
<feBlend mode="normal" in2="BackgroundImageFix" result="effect1_dropShadow_24_2771"/>
<feBlend mode="normal" in="SourceGraphic" in2="effect1_dropShadow_24_2771" result="shape"/>
</filter>
</defs>
</svg>
